<svg enable-background="new 0 0 512 512" height="512" viewBox="0 0 512 512" width="512" xmlns="http://www.w3.org/2000/svg"><g id="_x34_0_Agave"><g><path d="m350.562 407.651c0 12.426-2.375 24.267-6.766 35.131-41.637 41.735-80.216 40.856-86.754 40.498-.423-5.107-.716-10.181-.878-15.223-.098-3.285-.163-6.538-.163-9.791 0 3.253-.065 6.506-.163 9.791-.162 5.075-.455 10.149-.878 15.256-6.538.326-45.117 1.204-86.754-40.498-4.359-10.865-6.766-22.738-6.766-35.164 0-19.647 13.37-80.346 30.057-148.461 21.175-86.468 47.699-184.87 58.998-226.352 1.529-5.613 9.484-5.613 11.013 0 11.299 41.482 37.823 139.884 58.998 226.352 16.687 68.115 30.056 128.814 30.056 148.461z" fill="#94c1ff"/><g><path d="m235.536 177.986c-1.739-.455-2.782-2.233-2.329-3.972l5.999-23.016c.453-1.739 2.215-2.792 3.972-2.324 1.739.453 2.779 2.233 2.324 3.972l-5.994 23.011c-.459 1.75-2.244 2.777-3.972 2.329z" fill="#fff"/></g><g><path d="m246.422 136.239c-1.734-.465-2.767-2.25-2.304-3.987l2.599-9.788c.46-1.737 2.24-2.759 3.982-2.309 1.737.46 2.772 2.243 2.309 3.982l-2.599 9.798c-.454 1.699-2.204 2.77-3.987 2.304z" fill="#fff"/></g><path d="m445.975 77.293c4.575-4.611 12.033.743 9.158 6.568-26.286 53.245-42.227 103.903-51.646 148.754-1.106 5.172-2.082 10.246-2.993 15.256-7.807 42.287-9.823 78.752-9.628 106.336.033 7.091 0 14.02-.098 20.721-54.844 110.304-124.715 108.84-133.726 108.352-.391-.033-.683-.033-.846-.033.52-19.679 2.244-38.872 5.042-57.576 9.499-64.602 31.162-123.056 57.12-173.475 42.482-82.539 96.516-143.556 127.617-174.903z" fill="#d7e9ff"/><path d="m255.806 483.247c-.162 0-.422.033-.846.065-9.011.456-78.915 1.919-133.725-108.45-.098-6.701-.13-13.565-.098-20.656.195-27.584-1.822-64.049-9.628-106.336-.911-5.01-1.887-10.084-2.993-15.256-9.419-44.85-25.36-95.508-51.646-148.754-2.875-5.824 4.583-11.178 9.158-6.568 31.101 31.346 85.135 92.364 127.616 174.903 25.958 50.419 47.622 108.873 57.12 173.475 2.797 18.706 4.522 37.898 5.042 57.577z" fill="#d7e9ff"/><path d="m256.001 477.587c0 1.854-.033 3.741-.065 5.66 0 0-.065 0-.13 0-.162 0-.422.033-.846.065-61.598 3.116-112.467-61.691-138.214-117.754-3.155-6.864-6.278-14.118-9.335-21.827-12.932-32.701-41.364-84.124-101.719-130.3-5.074-3.882-.913-11.882 5.182-9.967 23.516 7.388 57.429 20.007 92.569 39.721 72.936 40.915 130.309 100.6 147.323 182.486 2.83 13.402 4.554 27.519 5.074 42.385.096 3.156.161 6.311.161 9.531z" fill="#94c1ff"/><path d="m501.129 203.465c6.095-1.915 10.256 6.086 5.182 9.967-60.355 46.175-88.788 97.599-101.719 130.3-26.805 67.584-79.406 143.241-147.55 139.548-.391-.033-.683-.033-.846-.033-.065 0-.13 0-.13 0-.033-1.919-.065-3.806-.065-5.66 0-3.22.065-6.375.163-9.531.52-14.866 2.244-28.983 5.074-42.385 17.014-81.889 74.391-141.574 147.323-182.486 35.139-19.713 69.053-32.332 92.568-39.72z" fill="#94c1ff"/><g fill="#116fff"><path d="m67.6 179.876c.55 1.733 2.398 2.653 4.089 2.116 1.714-.544 2.66-2.375 2.116-4.089-6.015-18.907-6.614-25.523-14.764-44.278-.72-1.648-2.632-2.408-4.282-1.689-1.648.717-2.406 2.634-1.689 4.282 7.972 18.344 8.41 24.408 14.53 43.658z"/><path d="m44.742 117.772c.769 1.641 2.714 2.323 4.328 1.566 1.627-.763 2.329-2.701 1.566-4.328-1.523-3.25-3.074-6.469-4.684-9.717-.801-1.61-2.749-2.263-4.364-1.47-1.61.798-2.268 2.754-1.47 4.364 1.59 3.203 3.121 6.381 4.624 9.585z"/><path d="m405.101 396.857c-1.574-.867-3.555-.295-4.425 1.277-1.638 2.968-3.306 5.821-4.971 8.615-.918 1.544-.412 3.542 1.132 4.463 1.542.917 3.54.415 4.463-1.132 1.701-2.856 3.405-5.77 5.078-8.799.867-1.574.297-3.555-1.277-4.424z"/><path d="m385.678 422.423c-10.484 15.334-21.956 28.755-34.091 39.899-1.322 1.216-1.411 3.275-.196 4.6 1.224 1.331 3.284 1.405 4.6.196 12.499-11.479 24.295-25.279 35.062-41.017 1.015-1.485.633-3.509-.849-4.526-1.482-1.016-3.511-.634-4.526.848z"/><path d="m500.153 200.359c-32.647 10.256-65.84 24.421-95.145 41.126.558-2.878 1.11-5.612 1.664-8.203 10.647-50.701 27.934-100.489 51.38-147.981 4.504-9.129-7.227-17.52-14.39-10.299v-.002c-28.349 28.576-81.324 87.627-123.914 167.536-20.672-83.317-45.122-173.923-55.101-210.552-2.393-8.799-14.895-8.81-17.292 0-9.979 36.628-34.431 127.237-55.102 210.55-42.592-79.913-95.566-138.961-123.915-167.531-7.167-7.225-18.889 1.176-14.388 10.299 25.621 51.898 43.171 105.262 53.045 156.186-29.501-16.8-62.575-30.893-95.145-41.128-9.543-3.001-16.099 9.563-8.137 15.659 58.889 45.051 87.251 94.968 100.672 128.914 27.262 68.735 77.669 141.886 151.422 141.687 74.449-.201 124.174-71.983 151.813-141.689 13.422-33.943 41.783-83.861 100.672-128.914 7.951-6.084 1.412-18.667-8.139-15.658zm-51.868-120.771c0-.003 0-.003 0-.003 1.971-1.989 5.184.294 3.929 2.833-23.687 47.983-41.152 98.289-51.911 149.514-.908 4.25-1.811 8.832-2.744 13.904-58.116 34.535-99.06 77.109-122.265 127.026 10.367-39.998 25.739-79.901 45.96-119.175 42.862-83.281 97.986-144.825 127.031-174.099zm-194.649-45.895c.659-2.42 4.071-2.421 4.73 0 10.258 37.658 35.822 132.394 56.831 217.547-29.371 57.177-48.612 115.702-57.178 173.945-.756 3.598-1.422 7.251-2.017 10.943-.599-3.715-1.269-7.39-2.031-11.007-8.569-58.227-27.803-116.724-57.164-173.879 21.009-85.154 46.571-179.89 56.829-217.549zm-193.847 48.725c-1.257-2.544 1.964-4.818 3.926-2.83 29.045 29.269 84.169 90.813 127.035 174.099 20.22 39.274 35.592 79.177 45.958 119.175-23.208-49.926-64.155-92.501-122.265-127.026-9.89-53.823-28.129-109.686-54.654-163.418zm50.647 260.116c-13.724-34.708-42.693-85.727-102.767-131.685-2.178-1.67-.421-5.105 2.228-4.28 37.866 11.9 73.854 28.407 99.96 44.105 76.504 45.105 122.829 104.168 137.698 175.556 2.656 17.758 4.303 35.871 4.902 53.894-.112 0-.221.001-.336.001-66.253 0-115.505-71.588-141.685-137.591zm393.898-131.688c-60.074 45.961-89.043 96.98-102.768 131.686-25.581 64.514-74.623 136.721-140.627 137.571-.017 0-.033 0-.05 0-.481.006-.919.003-1.343-.001.602-18.001 2.246-36.099 4.897-53.858 14.863-71.389 61.192-130.459 137.728-175.586 26.243-15.781 62.264-32.254 99.935-44.089 2.609-.815 4.432 2.59 2.228 4.277z"/></g></g></g></svg>