<svg id="Layer_1" enable-background="new 0 0 68 68" height="512" viewBox="0 0 68 68" width="512" xmlns="http://www.w3.org/2000/svg"><g><path d="m48.3008614 33.3250732 5.4963417-.0000381v1.3567772l-5.4963417.0000381c-.3700104 0-.6782913-.30056-.6782913-.6784782-.0000001-.3775406.3082809-.6782951.6782913-.678299z" fill="#e9e9ff"/><g><g><g><path d="m47.660965 15.5251331 5.5350342-.0000372c.3779182-.0000029.6782913.308465.6782913.6861944 0 .3700123-.3003731.6782951-.6782913.678299l-4.856369.0000324.0000038 34.2276802 4.8563728-.0000343c.3779144 0 .6782913.3082771.6782913.6782913 0 .3777275-.3003769.6782951-.6782913.678299l-5.535038.0000343c-.3775406.0000038-.6782913-.30056-.6782913-.6782875l-.0000038-17.1137466-13.2047272.0000877c-.3700104.0000038-.6782913-.30056-.6782913-.6784744 0-.3775444.3082809-.678299.6782913-.678299l13.2047272-.0000916v-17.1137447c-.0000001-.3777294.3007507-.6862001.6782913-.686203z" fill="#e9e9ff"/></g></g><g><path d="m46.6473389 28.2863178 1.9443398-.0000134c.3264503-.0000019.5892563.2628021.5892563.5887413v10.2599258c0 .3259392-.2628021.5887489-.5892563.5887489l-1.9443398.0000153c-.3259392 0-.5887413-.2628021-.5887413-.5887413l-.0000038-10.2599277c0-.3259391.2628059-.588747.5887451-.5887489z" fill="#ed524e"/></g></g><g><g><g><path d="m43.3283577 42.3799286v11.3184738c0 3.6246872-9.2545471 6.5635376-20.6606178 6.5635376-11.4131928 0-20.6677399-2.9388504-20.6677399-6.5635376v-11.3184738c0-3.6318092 9.2545471-6.5706596 20.6677399-6.5706596 11.4060707 0 20.6606178 2.9388504 20.6606178 6.5706596z" fill="#4f5d99"/><path d="m43.3283577 42.3799286c0 3.6243324-9.2545471 6.5635414-20.6606178 6.5635414-11.4131928 0-20.6677399-2.939209-20.6677399-6.5635414 0-3.6318092 9.2545471-6.5706596 20.6677399-6.5706596 11.4060707 0 20.6606178 2.9388504 20.6606178 6.5706596z" fill="#3d4a75"/><path d="m2 42.3799286c0 3.6243324 9.2545471 6.5635414 20.6677399 6.5635414 11.4060707 0 20.6606178-2.939209 20.6606178-6.5635414v11.3196144c0 3.6243324-9.2545471 6.5635376-20.6606178 6.5635376-11.4131928 0-20.6677399-2.9392052-20.6677399-6.5635376z" fill="#4f5d99"/><path d="m15.1008253 54.4052849c0 .5197716-.4570942.9206085-.9768658.8643494-4.514679-.5136566-7.501533-1.5654297-8.6723957-2.3545647-.2066855-.1378937-.3193541-.3757668-.3193541-.6197548 0-.5261917.5133514-.8894196 1.0017843-.7203407 2.4358964.8579292 5.2724757 1.646759 8.1778488 1.9598465.4445573.0501403.7889825.4197921.7889825.8704643z" fill="#e9e9ff"/><path d="m40.7758713 51.7291985c0 .7805595-.6345596 1.4076424-1.4147644 1.4076424-.7803802 0-1.4147644-.6270828-1.4147644-1.4076424 0-.7802048.6343842-1.4147644 1.4147644-1.4147644.7802047 0 1.4147644.6345596 1.4147644 1.4147644z" fill="#7bd681"/><path d="m30.930563 53.8672676c0 .7805595-.6345615 1.4076424-1.4147644 1.4076424-.7803822 0-1.4147644-.6270828-1.4147644-1.4076424 0-.7802048.6343822-1.4147644 1.4147644-1.4147644.7802028 0 1.4147644.6345596 1.4147644 1.4147644z" fill="#ed524e"/></g><g><path d="m43.3283577 28.3419991v11.31847c0 3.624691-9.2545471 6.5635414-20.6606178 6.5635414-11.4131928 0-20.6677399-2.9388504-20.6677399-6.5635414v-11.31847c0-3.6318111 9.2545471-6.5706615 20.6677399-6.5706615 11.4060707-.0000001 20.6606178 2.9388503 20.6606178 6.5706615z" fill="#4f5d99"/><path d="m43.3283577 28.3419991c0 3.6243324-9.2545471 6.5635376-20.6606178 6.5635376-11.4131928 0-20.6677399-2.9392052-20.6677399-6.5635376 0-3.6318111 9.2545471-6.5706615 20.6677399-6.5706615 11.4060707-.0000001 20.6606178 2.9388503 20.6606178 6.5706615z" fill="#3d4a75"/><path d="m2 28.3419991c0 3.6243324 9.2545471 6.5635376 20.6677399 6.5635376 11.4060707 0 20.6606178-2.9392052 20.6606178-6.5635376v11.3196144c0 3.6243324-9.2545471 6.5635376-20.6606178 6.5635376-11.4131928 0-20.6677399-2.9392052-20.6677399-6.5635376z" fill="#4f5d99"/><path d="m15.1008253 40.3673553c0 .5197716-.4570942.9206085-.9768658.8643494-4.514679-.5136566-7.501533-1.5654297-8.6723957-2.3545685-.2066855-.1378899-.3193541-.3757629-.3193541-.619751 0-.5261917.5133514-.8894196 1.0017843-.7203407 2.4358964.8579292 5.2724757 1.646759 8.1778488 1.9598465.4445573.0501404.7889825.4197922.7889825.8704643z" fill="#e9e9ff"/><path d="m40.7758713 37.6912651c0 .7805595-.6345596 1.4076424-1.4147644 1.4076424-.7803802 0-1.4147644-.6270828-1.4147644-1.4076424 0-.780201.6343842-1.4147644 1.4147644-1.4147644.7802047 0 1.4147644.6345634 1.4147644 1.4147644z" fill="#7bd681"/><path d="m35.929184 39.1024704c0 .7805595-.6345596 1.4076424-1.4147644 1.4076424-.7803802 0-1.4147644-.6270828-1.4147644-1.4076424 0-.7802048.6343842-1.4147644 1.4147644-1.4147644.7802047 0 1.4147644.6345596 1.4147644 1.4147644z" fill="#fdc72e"/><path d="m35.929184 53.1403999c0 .7805595-.6345596 1.4076424-1.4147644 1.4076424-.7803802 0-1.4147644-.6270828-1.4147644-1.4076424 0-.780201.6343842-1.4147644 1.4147644-1.4147644.7802047 0 1.4147644.6345635 1.4147644 1.4147644z" fill="#fdc72e"/><path d="m30.930563 39.8293381c0 .7805595-.6345615 1.4076424-1.4147644 1.4076424-.7803822 0-1.4147644-.6270828-1.4147644-1.4076424 0-.7802048.6343822-1.4147644 1.4147644-1.4147644.7802028 0 1.4147644.6345596 1.4147644 1.4147644z" fill="#ed524e"/></g><g><path d="m43.3283577 14.3040676v11.3184719c0 3.6246891-9.2545471 6.5635376-20.6606178 6.5635376-11.4131928 0-20.6677399-2.9388485-20.6677399-6.5635376v-11.3184719c0-3.6318102 9.2545471-6.5706606 20.6677399-6.5706606 11.4060707 0 20.6606178 2.9388504 20.6606178 6.5706606z" fill="#4f5d99"/><path d="m43.3283577 14.3040676c0 3.6243324-9.2545471 6.5635395-20.6606178 6.5635395-11.4131928 0-20.6677399-2.9392071-20.6677399-6.5635395 0-3.6318102 9.2545471-6.5706606 20.6677399-6.5706606 11.4060707 0 20.6606178 2.9388504 20.6606178 6.5706606z" fill="#3d4a75"/><path d="m2 14.3040676c0 3.6243324 9.2545471 6.5635395 20.6677399 6.5635395 11.4060707 0 20.6606178-2.9392071 20.6606178-6.5635395v11.3196144c0 3.6243324-9.2545471 6.5635395-20.6606178 6.5635395-11.4131928 0-20.6677399-2.939207-20.6677399-6.5635395z" fill="#4f5d99"/><path d="m15.1008253 26.3294239c0 .5197716-.4570942.9206066-.9768658.8643494-4.514679-.5136566-7.501533-1.5654297-8.6723957-2.3545666-.2066855-.1378918-.3193541-.3757648-.3193541-.619751 0-.5261936.5133514-.8894234 1.0017843-.7203445 2.4358964.8579311 5.2724757 1.6467609 8.1778488 1.9598465.4445573.0501442.7889825.4197921.7889825.8704662z" fill="#e9e9ff"/><path d="m40.7758713 23.6533356c0 .7805595-.6345596 1.4076424-1.4147644 1.4076424-.7803802 0-1.4147644-.6270828-1.4147644-1.4076424 0-.7802029.6343842-1.4147644 1.4147644-1.4147644.7802047 0 1.4147644.6345615 1.4147644 1.4147644z" fill="#7bd681"/><path d="m35.929184 25.064539c0 .7805595-.6345596 1.4076424-1.4147644 1.4076424-.7803802 0-1.4147644-.6270828-1.4147644-1.4076424 0-.7802029.6343842-1.4147644 1.4147644-1.4147644.7802047 0 1.4147644.6345615 1.4147644 1.4147644z" fill="#fdc72e"/><path d="m30.930563 25.7914066c0 .7805595-.6345615 1.4076424-1.4147644 1.4076424-.7803822 0-1.4147644-.6270828-1.4147644-1.4076424 0-.7802048.6343822-1.4147644 1.4147644-1.4147644.7802028 0 1.4147644.6345597 1.4147644 1.4147644z" fill="#ed524e"/></g></g><g fill="#fff" opacity=".16"><path d="m32.2985954 59.5101204c-2.8763218.4856186-6.1447868.7564735-9.6280174.7564735-1.6059628 0-3.1656418-.0560875-4.6596603-.1682587l-12.2708774-49.5590963c3.1562934-1.4381609 8.0685654-2.4467888 13.7462006-2.7267604z"/><path d="m39.5919952 57.4650536c-1.0738335.4856186-2.3439674.9242706-3.7727776 1.297718l-12.6349792-51.025074c1.419466.0091195 2.8015423.0652051 4.136879.1678004z"/></g></g><g><path d="m66 47.3328438v8.418869c0 .4727478-.3830185.8476067-.8476105.8476067h-12.6264496c-.464592 0-.8476105-.3748589-.8476105-.8476067v-9.7392311c0-.4727516.3830185-.8476105.8476105-.8476105h3.8058853c.4727516 0 .8476105.3748589.8476105.8476105v.4727516h7.9729538c.464592 0 .8476105.3828163.8476105.8476105z" fill="#74c579"/><path d="m66 49.1528168v8.418869c0 .4681206-.3794861.8476105-.8476105.8476105h-12.6264496c-.4681206 0-.8476105-.3794899-.8476105-.8476105v-8.418869c0-.4681206.3794899-.8476105.8476105-.8476105h12.6264496c.4681244 0 .8476105.3794899.8476105.8476105z" fill="#7bd681"/><g fill="#74c579"><path d="m55.4007912 56.398407v.4079742c0 .0539017-.0446548.0985565-.0985565.0985565h-2.027626c-.0539017 0-.0985565-.0446548-.0985565-.0985565v-.4079742c0-.055481.0446548-.0985565.0985565-.0985565h2.027626c.0539016 0 .0985565.0430755.0985565.0985565z"/><path d="m59.0096207 54.9665413v.4079781c0 .0554771-.0446548.0985527-.0985565.0985527h-5.6364555c-.0539017 0-.0985565-.0430756-.0985565-.0985527v-.4079781c0-.0539017.0446548-.0985565.0985565-.0985565h5.6364555c.0539016 0 .0985565.0446548.0985565.0985565z"/><path d="m59.0096207 56.398407v.4079742c0 .0539017-.0446548.0985565-.0985565.0985565h-2.6065522c-.0554428 0-.0985184-.0446548-.0985184-.0985565v-.4079742c0-.055481.0430756-.0985565.0985184-.0985565h2.6065521c.0539017 0 .0985566.0430755.0985566.0985565z"/></g></g><g><path d="m66 28.8657951v8.418869c0 .4727516-.3830185.8476105-.8476105.8476105h-12.6264496c-.464592 0-.8476105-.3748589-.8476105-.8476105v-9.7392291c0-.4727516.3830185-.8476086.8476105-.8476086h3.8058853c.4727516 0 .8476105.3748569.8476105.8476086v.4727516h7.9729538c.464592 0 .8476105.3828163.8476105.8476085z" fill="#f9ac00"/><path d="m66 30.68577v8.4188671c0 .4681244-.3794861.8476105-.8476105.8476105h-12.6264496c-.4681206 0-.8476105-.3794861-.8476105-.8476105v-8.4188671c0-.4681225.3794899-.8476086.8476105-.8476086h12.6264496c.4681244.0000001.8476105.3794862.8476105.8476086z" fill="#fdc72e"/><g fill="#f9ac00"><path d="m55.4007912 37.9313583v.4079781c0 .0538979-.0446548.0985527-.0985565.0985527h-2.027626c-.0539017 0-.0985565-.0446548-.0985565-.0985527v-.4079781c0-.055481.0446548-.0985565.0985565-.0985565h2.027626c.0539016 0 .0985565.0430756.0985565.0985565z"/><path d="m59.0096207 36.4994926v.4079781c0 .055481-.0446548.0985527-.0985565.0985527h-5.6364555c-.0539017 0-.0985565-.0430717-.0985565-.0985527v-.4079781c0-.0538979.0446548-.0985527.0985565-.0985527h5.6364555c.0539016 0 .0985565.0446549.0985565.0985527z"/><path d="m59.0096207 37.9313583v.4079781c0 .0538979-.0446548.0985527-.0985565.0985527h-2.6065522c-.0554428 0-.0985184-.0446548-.0985184-.0985527v-.4079781c0-.055481.0430756-.0985565.0985184-.0985565h2.6065521c.0539017 0 .0985566.0430756.0985566.0985565z"/></g></g><g><path d="m66 10.3987484v8.4188671c0 .4727516-.3830185.8476105-.8476105.8476105h-12.6264496c-.464592 0-.8476105-.3748589-.8476105-.8476105v-9.7392282c0-.4727507.3830185-.8476086.8476105-.8476086h3.8058853c.4727516 0 .8476105.3748579.8476105.8476086v.4727516h7.9729538c.464592 0 .8476105.3828163.8476105.8476095z" fill="#b72a2a"/><path d="m66 12.2187223v8.4188681c0 .4681225-.3794861.8476105-.8476105.8476105h-12.6264496c-.4681206 0-.8476105-.379488-.8476105-.8476105v-8.4188681c0-.4681215.3794899-.8476086.8476105-.8476086h12.6264496c.4681244.0000001.8476105.3794871.8476105.8476086z" fill="#ed524e"/><g fill="#b72a2a"><path d="m55.4007912 19.4643116v.4079762c0 .0538998-.0446548.0985546-.0985565.0985546h-2.027626c-.0539017 0-.0985565-.0446548-.0985565-.0985546v-.4079762c0-.055479.0446548-.0985546.0985565-.0985546h2.027626c.0539016 0 .0985565.0430756.0985565.0985546z"/><path d="m59.0096207 18.0324459v.4079781c0 .055479-.0446548.0985546-.0985565.0985546h-5.6364555c-.0539017 0-.0985565-.0430756-.0985565-.0985546v-.4079781c0-.0538998.0446548-.0985546.0985565-.0985546h5.6364555c.0539016 0 .0985565.0446548.0985565.0985546z"/><path d="m59.0096207 19.4643116v.4079762c0 .0538998-.0446548.0985546-.0985565.0985546h-2.6065522c-.0554428 0-.0985184-.0446548-.0985184-.0985546v-.4079762c0-.055479.0430756-.0985546.0985184-.0985546h2.6065521c.0539017 0 .0985566.0430756.0985566.0985546z"/></g></g></g></svg>