<svg id="Capa_1" enable-background="new 0 0 512 512" height="512" viewBox="0 0 512 512" width="512" xmlns="http://www.w3.org/2000/svg"><g><g id="Page-1_68_"><g id="_x30_69---SQL-Database"><path id="Shape_980_" d="m162.133 136.533c57.916 0 119.467-17.92 119.467-51.2s-61.551-51.2-119.467-51.2-119.467 17.92-119.467 51.2 61.552 51.2 119.467 51.2zm0-85.333c63.445 0 102.4 19.883 102.4 34.133s-38.955 34.133-102.4 34.133-102.4-19.883-102.4-34.133 38.955-34.133 102.4-34.133z"/><path id="Shape_979_" d="m486.4 307.2h-162.133v-230.4c0-43.068-71.219-76.8-162.133-76.8s-162.134 33.732-162.134 76.8v290.133c0 43.068 71.219 76.8 162.133 76.8 20.031.033 40.023-1.747 59.733-5.316v47.983c0 14.138 11.462 25.6 25.6 25.6h238.934c14.138 0 25.6-11.461 25.6-25.6v-153.6c0-14.138-11.461-25.6-25.6-25.6zm-238.933 0c-14.138 0-25.6 11.462-25.6 25.6v19.977c-19.685 3.783-39.688 5.667-59.733 5.623-86.775 0-145.067-30.882-145.067-59.733v-42.121c26.334 25.165 80.683 42.121 145.067 42.121s118.733-16.956 145.067-42.121v50.654zm59.733-85.333c0 28.851-58.291 59.733-145.067 59.733s-145.066-30.882-145.066-59.733v-42.121c26.334 25.165 80.683 42.121 145.067 42.121s118.733-16.956 145.067-42.121v42.121zm-290.133-145.067c0-28.851 58.291-59.733 145.067-59.733s145.066 30.882 145.066 59.733v68.267c0 28.851-58.291 59.733-145.067 59.733s-145.066-30.882-145.066-59.733zm145.066 349.867c-86.775 0-145.067-30.882-145.067-59.733v-33.587c26.334 25.165 80.683 42.121 145.067 42.121 20.031.031 40.024-1.752 59.733-5.325v50.901c-19.684 3.786-39.687 5.669-59.733 5.623zm332.8 59.733c0 4.713-3.82 8.533-8.533 8.533h-238.933c-4.713 0-8.533-3.82-8.533-8.533v-153.6c0-4.713 3.821-8.533 8.533-8.533h238.933c4.713 0 8.533 3.82 8.533 8.533z"/><path id="Shape_978_" d="m294.4 375.467h21.333c4.713 0 8.533-3.82 8.533-8.533s-3.821-8.533-8.533-8.533h-21.333c-16.495 0-29.867 13.372-29.867 29.867s13.372 29.867 29.867 29.867c7.069 0 12.8 5.731 12.8 12.8s-5.731 12.8-12.8 12.8h-21.333c-4.713 0-8.533 3.82-8.533 8.533s3.82 8.533 8.533 8.533h21.333c16.495 0 29.867-13.372 29.867-29.867s-13.372-29.867-29.867-29.867c-7.069 0-12.8-5.731-12.8-12.8s5.731-12.8 12.8-12.8z"/><path id="Shape_977_" d="m407.492 438.093c1.355-3.659 2.068-7.524 2.108-11.426v-34.133c0-18.851-15.282-34.133-34.133-34.133s-34.133 15.282-34.133 34.133v34.133c-.071 13.357 7.695 25.515 19.845 31.066 12.15 5.55 26.425 3.461 36.475-5.338l5.914 5.905c3.348 3.234 8.671 3.188 11.962-.104 3.292-3.292 3.338-8.614.104-11.962zm-32.025 5.64c-9.426 0-17.067-7.641-17.067-17.067v-34.133c0-9.426 7.641-17.067 17.067-17.067s17.067 7.641 17.067 17.067v30.601l-2.5-2.5c-3.348-3.234-8.671-3.188-11.962.104-3.292 3.292-3.338 8.614-.104 11.962l7.629 7.629c-2.922 2.198-6.475 3.392-10.13 3.404z"/><path id="Shape_976_" d="m469.333 443.733h-17.067v-76.8c0-4.713-3.821-8.533-8.533-8.533-4.713 0-8.533 3.82-8.533 8.533v85.333c0 4.713 3.821 8.533 8.533 8.533h25.6c4.713 0 8.533-3.82 8.533-8.533s-3.82-8.533-8.533-8.533z"/></g></g></g></svg>