<svg id="Layer_1" enable-background="new 0 0 66 66" viewBox="0 0 66 66" xmlns="http://www.w3.org/2000/svg"><g><g><g><path d="m59.25 33.12h-52.5c-.52 0-.94-.42-.94-.94v-26.41c0-2.07 1.68-3.76 3.76-3.76h46.86c2.07 0 3.76 1.68 3.76 3.76v26.4c0 .53-.42.95-.94.95zm-51.56-1.88h50.62v-25.47c0-1.04-.84-1.88-1.88-1.88h-46.86c-1.04 0-1.88.84-1.88 1.88z" fill="#231f20"/></g></g><g><g><g><g><path d="m39.41 33.11c-.52 0-.94-.42-.94-.94v-6.16h-4.35v6.16c0 .52-.42.94-.94.94s-.94-.42-.94-.94v-7.1c0-.52.42-.94.94-.94h6.22c.52 0 .94.42.94.94v7.1c.01.52-.41.94-.93.94z" fill="#231f20"/></g></g><g><g><path d="m39.41 26.01c-.14 0-.29-.03-.42-.1-.46-.23-.65-.8-.41-1.26l1.74-3.43c.1-.21.13-.44.07-.67l-1.69-6.33h-4.8l-1.69 6.33c-.06.22-.04.46.07.67l1.74 3.43c.23.46.05 1.03-.41 1.26-.46.24-1.03.05-1.26-.41l-1.74-3.43c-.31-.62-.39-1.33-.21-2l1.88-7.03c.11-.41.48-.7.91-.7h6.23c.43 0 .8.29.91.7l1.88 7.03c.18.67.1 1.38-.21 2l-1.74 3.43c-.18.32-.51.51-.85.51z" fill="#231f20"/></g></g></g><g><g><path d="m22.23 33.11c-.52 0-.94-.42-.94-.94v-5.03c0-.9.42-1.73 1.15-2.29 1.62-1.25 2.54-3.13 2.54-5.17 0-1.67-.63-3.24-1.73-4.43v3.29c0 .33-.17.63-.45.8l-3.87 2.38c-.3.18-.67.19-.97.01l-4.02-2.38c-.29-.17-.46-.48-.46-.81v-3.13c-1.01 1.17-1.59 2.67-1.59 4.27 0 2.04.93 3.92 2.55 5.17.73.56 1.15 1.4 1.15 2.29v5.03c0 .52-.42.94-.94.94s-.94-.42-.94-.94v-5.03c0-.31-.15-.6-.42-.81-2.08-1.61-3.28-4.03-3.28-6.66 0-2.89 1.46-5.54 3.9-7.09.29-.19.66-.2.96-.03.3.16.49.48.49.82v4.63l3.07 1.82 2.94-1.81v-4.73c0-.34.18-.65.48-.82.3-.16.66-.16.95.02 2.54 1.55 4.06 4.23 4.06 7.2 0 2.62-1.19 5.05-3.28 6.66-.26.2-.41.5-.41.81v5.03c0 .51-.42.93-.94.93z" fill="#231f20"/></g></g><g><g><g><path d="m54.09 33.11c-.52 0-.94-.42-.94-.94v-10.93h-4.84v10.94c0 .52-.42.94-.94.94s-.94-.42-.94-.94v-11.88c0-.52.42-.94.94-.94h6.72c.52 0 .94.42.94.94v11.88c0 .51-.42.93-.94.93z" fill="#231f20"/></g></g><g><g><path d="m54.09 21.24c-.35 0-.69-.2-.85-.53l-2.51-5.25-2.51 5.25c-.22.47-.79.67-1.25.44-.47-.22-.67-.78-.44-1.25l3.36-7.01c.31-.65 1.38-.65 1.69 0l3.36 7.01c.22.47.03 1.03-.44 1.25-.13.06-.27.09-.41.09z" fill="#231f20"/></g></g><g><g><path d="m50.73 33.11c-.52 0-.94-.42-.94-.94v-11.87c0-.52.42-.94.94-.94s.94.42.94.94v11.88c0 .51-.42.93-.94.93z" fill="#231f20"/></g></g></g></g><g><g><path d="m56.43 63.98h-46.86c-4.14 0-7.51-3.37-7.51-7.51v-22.41c0-1.55 1.26-2.82 2.82-2.82h56.25c1.55 0 2.82 1.26 2.82 2.82v22.42c-.01 4.13-3.38 7.5-7.52 7.5zm-51.56-30.86c-.52 0-.94.42-.94.94v22.42c0 3.11 2.53 5.63 5.63 5.63h46.86c3.11 0 5.63-2.53 5.63-5.63v-22.42c0-.52-.42-.94-.94-.94z" fill="#231f20"/></g></g><g><g><path d="m43.61 56.15h-21.86c-4.14 0-7.51-3.37-7.51-7.51v-7.43c0-.52.42-.94.94-.94h5.94c.52 0 .94.42.94.94v5.09c0 1.6 1.31 2.91 2.91 2.91h15.42c1.6 0 2.91-1.31 2.91-2.91v-5.09c0-.52.42-.94.94-.94h5.94c.52 0 .94.42.94.94v7.43c0 4.14-3.37 7.51-7.51 7.51zm-27.49-14v6.49c0 3.11 2.53 5.63 5.63 5.63h21.86c3.11 0 5.63-2.53 5.63-5.63v-6.49h-4.07v4.15c0 2.64-2.15 4.79-4.79 4.79h-15.41c-2.64 0-4.79-2.15-4.79-4.79v-4.15z" fill="#231f20"/></g></g><g><g><path d="m52.04 42.15h-10.13c-.52 0-.94-.42-.94-.94s.42-.94.94-.94h10.13c.52 0 .94.42.94.94s-.43.94-.94.94z" fill="#231f20"/></g></g><g><g><path d="m23.51 42.15h-10.13c-.52 0-.94-.42-.94-.94s.42-.94.94-.94h10.13c.52 0 .94.42.94.94s-.43.94-.94.94z" fill="#231f20"/></g></g></g></svg>