<?xml version="1.0" encoding="UTF-8" standalone="no"?>
<!-- Created with Inkscape (http://www.inkscape.org/) -->

<svg
   version="1.1"
   id="svg1884"
   xml:space="preserve"
   width="682.66669"
   height="682.66669"
   viewBox="0 0 682.66669 682.66669"
   xmlns="http://www.w3.org/2000/svg"
   xmlns:svg="http://www.w3.org/2000/svg"><defs
     id="defs1888"><clipPath
       clipPathUnits="userSpaceOnUse"
       id="clipPath1898"><path
         d="M 0,512 H 512 V 0 H 0 Z"
         id="path1896" /></clipPath></defs><g
     id="g1890"
     transform="matrix(1.3333333,0,0,-1.3333333,0,682.66667)"><g
       id="g1892"><g
         id="g1894"
         clip-path="url(#clipPath1898)"><g
           id="g1900"
           transform="translate(456.2915,190.0664)"><path
             d="m 0,0 c 0,-28.331 -22.967,-51.298 -51.299,-51.298 -28.331,0 -51.298,22.967 -51.298,51.298 0,28.332 22.967,51.298 51.298,51.298 C -22.967,51.298 0,28.332 0,0 Z"
             style="fill:none;stroke:#050402;stroke-width:15;stroke-linecap:round;stroke-linejoin:round;stroke-miterlimit:10;stroke-dasharray:none;stroke-opacity:1"
             id="path1902" /></g><g
           id="g1904"
           transform="translate(430.6421,190.0664)"><path
             d="m 0,0 c 0,-14.166 -11.483,-25.649 -25.649,-25.649 -14.165,0 -25.649,11.483 -25.649,25.649 0,14.166 11.484,25.649 25.649,25.649 C -11.483,25.649 0,14.166 0,0 Z"
             style="fill:none;stroke:#050402;stroke-width:15;stroke-linecap:round;stroke-linejoin:round;stroke-miterlimit:10;stroke-dasharray:none;stroke-opacity:1"
             id="path1906" /></g><g
           id="g1908"
           transform="translate(136.5937,190.0664)"><path
             d="m 0,0 c 0,-28.331 -22.967,-51.298 -51.298,-51.298 -28.331,0 -51.298,22.967 -51.298,51.298 0,28.332 22.967,51.298 51.298,51.298 C -22.967,51.298 0,28.332 0,0 Z"
             style="fill:none;stroke:#050402;stroke-width:15;stroke-linecap:round;stroke-linejoin:round;stroke-miterlimit:10;stroke-dasharray:none;stroke-opacity:1"
             id="path1910" /></g><g
           id="g1912"
           transform="translate(110.9448,190.0664)"><path
             d="m 0,0 c 0,-14.166 -11.483,-25.649 -25.649,-25.649 -14.166,0 -25.649,11.483 -25.649,25.649 0,14.166 11.483,25.649 25.649,25.649 C -11.483,25.649 0,14.166 0,0 Z"
             style="fill:none;stroke:#050402;stroke-width:15;stroke-linecap:round;stroke-linejoin:round;stroke-miterlimit:10;stroke-dasharray:none;stroke-opacity:1"
             id="path1914" /></g><g
           id="g1916"
           transform="translate(495.5659,202.748)"><path
             d="m 0,0 h -40.857 c 1.031,-4.056 1.583,-8.304 1.583,-12.682 0,-4.6 -0.616,-9.056 -1.751,-13.298 H 0 c 4.935,0 8.935,4 8.935,8.934 v 8.111 C 8.935,-4 4.935,0 0,0 Z"
             style="fill:none;stroke:#050402;stroke-width:15;stroke-linecap:round;stroke-linejoin:round;stroke-miterlimit:10;stroke-dasharray:none;stroke-opacity:1"
             id="path1918" /></g><g
           id="g1920"
           transform="translate(33.9975,190.0664)"><path
             d="m 0,0 c 0,4.377 0.551,8.625 1.583,12.682 h -19.146 c -4.934,0 -8.934,-4.001 -8.934,-8.935 v -8.111 c 0,-4.934 4,-8.934 8.934,-8.934 H 1.751 C 0.615,-9.056 0,-4.601 0,0 Z"
             style="fill:none;stroke:#050402;stroke-width:15;stroke-linecap:round;stroke-linejoin:round;stroke-miterlimit:10;stroke-dasharray:none;stroke-opacity:1"
             id="path1922" /></g><g
           id="g1924"
           transform="translate(461.2602,273.7549)"><path
             d="m 0,0 c -0.773,-1.681 -1.217,-3.541 -1.217,-5.503 v -22.155 c 0,-7.299 5.973,-13.271 13.272,-13.271 H 33.908 C 33.445,-21.111 19.438,-4.152 0,0 Z"
             style="fill:none;stroke:#050402;stroke-width:15;stroke-linecap:round;stroke-linejoin:round;stroke-miterlimit:10;stroke-dasharray:none;stroke-opacity:1"
             id="path1926" /></g><g
           id="g1928"
           transform="translate(129.1416,339.0859)"><path
             d="m 0,0 11.08,-65.331 h 90.714 V 5.697 C 73.539,8.468 38.16,8.394 0,0 Z"
             style="fill:none;stroke:#050402;stroke-width:15;stroke-linecap:round;stroke-linejoin:round;stroke-miterlimit:10;stroke-dasharray:none;stroke-opacity:1"
             id="path1930" /></g><g
           id="g1932"
           transform="translate(253.2251,245.3579)"><path
             d="M 0,0 H 9.399"
             style="fill:none;stroke:#050402;stroke-width:15;stroke-linecap:round;stroke-linejoin:round;stroke-miterlimit:10;stroke-dasharray:none;stroke-opacity:1"
             id="path1934" /></g><g
           id="g1936"
           transform="translate(159.2319,245.3579)"><path
             d="M 0,0 H 9.399"
             style="fill:none;stroke:#050402;stroke-width:15;stroke-linecap:round;stroke-linejoin:round;stroke-miterlimit:10;stroke-dasharray:none;stroke-opacity:1"
             id="path1938" /></g><g
           id="g1940"
           transform="translate(26.2993,273.7549)"><path
             d="m 0,0 h -10.99 c -2.66,-6.388 -4.049,-13.267 -4.049,-20.248 V -32.39 H 0 c 7.089,0 12.89,5.801 12.89,12.89 v 6.609 C 12.89,-5.801 7.089,0 0,0 Z"
             style="fill:none;stroke:#050402;stroke-width:15;stroke-linecap:round;stroke-linejoin:round;stroke-miterlimit:10;stroke-dasharray:none;stroke-opacity:1"
             id="path1942" /></g><g
           id="g1944"
           transform="translate(342.2944,280.6387)"><path
             d="m 0,0 v 6.3 l -44.868,38.639 c -7.012,6.04 -15.447,10.322 -24.397,12.384 -33.964,7.83 -101.918,17.253 -175.435,-7.627 -12.319,-4.17 -22.954,-12.458 -29.941,-23.336 -1.115,-1.736 -0.761,-4.038 0.796,-5.394 l 30.786,-26.819 c 0.764,-0.665 1.742,-1.031 2.754,-1.031 H 2.021 C 0.749,-4.888 0,-2.529 0,0 Z"
             style="fill:none;stroke:#050402;stroke-width:15;stroke-linecap:round;stroke-linejoin:round;stroke-miterlimit:10;stroke-dasharray:none;stroke-opacity:1"
             id="path1946" /></g><g
           id="g1948"
           transform="translate(366.4536,304.7974)"><path
             d="m 0,0 h -11.269 c -7.089,0 -12.89,-5.801 -12.89,-12.891 v -11.268 c 0,-7.09 5.801,-12.89 12.89,-12.89 H 0 c 7.09,0 12.891,5.8 12.891,12.89 v 11.268 C 12.891,-5.801 7.09,0 0,0 Z"
             style="fill:none;stroke:#050402;stroke-width:15;stroke-linecap:round;stroke-linejoin:round;stroke-miterlimit:10;stroke-dasharray:none;stroke-opacity:1"
             id="path1950" /></g><g
           id="g1952"
           transform="translate(248.435,176.7681)"><path
             d="m 0,0 h 107.011 c -1.136,4.242 -1.751,8.698 -1.751,13.299 0,4.377 0.552,8.625 1.583,12.681 h -220.267 c 1.031,-4.056 1.583,-8.304 1.583,-12.681 0,-4.601 -0.615,-9.057 -1.751,-13.299 L -35,0"
             style="fill:none;stroke:#050402;stroke-width:15;stroke-linecap:round;stroke-linejoin:round;stroke-miterlimit:10;stroke-dasharray:none;stroke-opacity:1"
             id="path1954" /></g><g
           id="g1956"
           transform="translate(310.9272,349.1821)"><path
             d="m 0,0 c -9.433,7.167 -20.283,12.279 -31.865,14.949 -35.378,8.157 -109.66,18.859 -190.077,-8.358 -18.077,-6.118 -33.566,-18.158 -43.893,-34.206 l -25.454,-39.556 c -5.47,-8.501 -8.378,-18.395 -8.378,-28.504 v -24.729 c 0,-4.681 0.624,-9.341 1.855,-13.857 l 3.319,-12.173 h 19.146 c 5.645,22.197 25.762,38.617 49.715,38.617 23.954,0 44.07,-16.42 49.716,-38.617 H 44.351 c 5.645,22.197 25.761,38.617 49.715,38.617 23.954,0 44.07,-16.42 49.715,-38.617 h 40.482 v 29.069 c 0,20.384 -14.346,37.951 -34.319,42.026 L 75.536,-60.16 c -2.486,0.508 -4.878,1.359 -7.119,2.506 v -10.889 c 0,-7.09 -5.801,-12.891 -12.891,-12.891 H 44.258 c -7.09,0 -12.891,5.801 -12.891,12.891 v 11.268 c 0,7.089 5.801,12.89 12.891,12.89 h 7.527 l -25.08,21.598"
             style="fill:none;stroke:#050402;stroke-width:15;stroke-linecap:round;stroke-linejoin:round;stroke-miterlimit:10;stroke-dasharray:none;stroke-opacity:1"
             id="path1958" /></g></g></g></g></svg>
