<svg xmlns="http://www.w3.org/2000/svg" version="1.1" xmlns:xlink="http://www.w3.org/1999/xlink" width="512" height="512" x="0" y="0" viewBox="0 0 1707 1707" style="enable-background:new 0 0 512 512" xml:space="preserve" fill-rule="evenodd"><g><linearGradient id="a" x1="185.429" x2="1521.87" y1="1348.74" y2="357.925" gradientUnits="userSpaceOnUse"><stop offset="0" stop-color="#200094"></stop><stop offset=".529" stop-color="#8f004a"></stop><stop offset="1" stop-color="red"></stop></linearGradient><path fill="url(#a)" d="M1361 1073c-89 0-167-61-190-149-6-21 26-29 32-8 24 89 112 142 202 118 21-6 31 26 9 32-17 5-35 7-53 7zm109 570H97c-53 0-96-42-96-93V157c0-51 43-93 96-93h1373c53 0 96 42 96 93v436l72 69c8 8 14 29 2 44l-35 52c4 9 8 18 11 28 104 19 90 1 90 131 0 18-13 32-32 33l-58 11-11 30c61 87 60 67-31 157-2 3-5 5-8 6v396c0 51-43 93-96 93zm82-1020-63 41c-15 10-25-8-56-14-7-2-12-7-13-14l-14-72h-86c-1 0-2 0-4 4l-9 68c-3 18-22 11-56 29-17 9-43-23-73-41-2-1-3-1-4-1l-62 62 42 62c9 13-7 29-18 59-6 16-48 15-79 23-1 1-3 1-4 1v86l70 14c13 2 16 17 22 33 7 15 16 29 9 39l-42 59 63 63 59-42c5-3 11-4 17-1 27 14 53 17 55 32 2 12 8 70 14 70h86l14-70c1-6 5-10 10-12 29-13 47-26 59-18l63 40 61-60c0-14-50-57-43-76l16-44c2-7 7-12 14-13l73-14v-86l-73-14c-16-3-12-18-29-52-9-17 24-43 42-80zm-19-28V437H34v1113c0 32 28 59 63 59h1373c35 0 63-27 63-59v-397l-55-38c-9 5-17 9-28 13-20 103-1 88-130 88-20 0-35-17-36-30l-9-58c-10-4-21-8-30-12-86 60-64 62-157-31-12-12-13-32-1-45l34-49-13-30c-102-20-88-2-88-131 0-19 13-32 32-33l56-12c5-10 9-19 13-27-60-90-63-66 31-160 8-8 29-14 44-1l49 34c9-4 19-8 30-11 14-103 3-90 131-90 19 0 32 13 33 32l11 58c11 3 20 7 28 11zm0-191V157c0-33-28-60-63-60H769l177 307zM731 97H97c-35 0-63 27-63 60v247h874zM261 327c-133 0-120 15-120-120 0-19 14-33 33-33 135 0 120-16 120 116 0 21-15 37-33 37zm-86-33h85l1-87h-87zm295 33c-133 0-119 15-119-120 0-19 13-33 33-33 135 0 120-16 120 116 0 21-15 37-34 37zm-85-33h84l1-87h-86zm295 33c-133 0-120 15-120-120 0-19 14-33 34-33 135 0 120-16 120 116 0 21-15 37-34 37zm-85-33h84l1-87h-86zm718 33h-270c-41 0-76-36-76-77 0-42 34-76 76-76h270c42 0 77 34 77 76 0 41-36 77-77 77zm-270-120c-59 0-54 87 0 87h270c55 0 59-87 0-87zM647 1456h-93c-19 0-30-13-37-33l-11-63c-12-3-22-8-32-14l-53 37c-14 11-33 12-49-1l-66-67c-15-15-7-41-2-48l38-53-13-33c-111-20-95 0-95-138 0-28 21-33 30-36l65-12 13-33-40-57c-4-11-10-29 4-43 97-98 74-96 168-32 9-6 20-10 32-14 20-111 8-96 141-96 17 0 32 15 33 35l14 61c11 4 21 8 32 14 90-65 69-65 166 32 12 12 13 31 2 47l-35 53 13 33c110 20 95 4 95 141 0 19-14 33-32 34l-63 11-13 33c62 94 62 71-34 167-21 21-45 3-48 2l-51-37c-11 6-21 11-32 14l-14 62c-1 19-15 34-33 34zm-93-33h92l18-80c3-16 17-9 54-31 6-3 13-3 19 1l65 45 66-67-42-66c-8-12 9-40 18-65 7-17 52-15 86-24h3v-94c-22-12-81-7-89-26-29-78-31-41 22-126 2-3 2-5 2-5l-66-67-65 45c-16 11-24-10-60-17-6-2-11-7-13-13l-18-80h-91c-6 1-16 70-18 79-3 20-24 9-53 31-5 4-13 4-19 0l-66-45c-3-3-62 59-68 65 4 25 54 62 46 83-32 82-11 51-104 73-3 1-4 1-4 2v95l76 14c6 1 10 5 12 10 10 26 27 54 18 66-9 13-42 53-44 66 6 6 66 69 69 66l65-45c17-11 20 9 60 17 6 1 12 7 13 13 1 10 11 77 16 80zm46-193c-79 0-143-63-143-140 0-79 64-143 143-143s144 64 144 143c0 77-65 140-144 140zm0-250c-60 0-110 49-110 110 0 57 51 106 110 106 60 0 110-49 110-106 0-61-49-110-110-110zm194 126c-10 0-17-7-17-16 0-99-79-180-177-180-22 0-22-33 0-33 118 0 210 95 210 213 0 9-7 16-16 16zm-196 195c-94 0-180-65-204-157-5-21 27-30 33-8 24 94 126 152 219 124 20-6 54 41-48 41zm765-294c-76 0-136-59-136-134 0-73 61-133 136-133 72 0 133 61 133 133 0 75-58 134-133 134zm0-234c-57 0-103 45-103 100 0 56 45 100 103 100 56 0 100-44 100-100 0-54-46-100-100-100zm180 117c-9 0-17-7-17-17 0-92-73-166-163-166-22 0-22-34 0-34 108 0 197 90 197 200 0 10-8 17-17 17z" opacity="1" data-original="url(#a)"></path></g></svg>