<svg id="Layer_1" enable-background="new 0 0 66 66" viewBox="0 0 66 66" xmlns="http://www.w3.org/2000/svg"><g><path d="m7.5894947 53.6851654h7.9471188v5.6174774c0 2.5897141 2.1071835 4.6968994 4.6968994 4.6968994h39.0691299c2.5897141 0 4.6968994-2.1071854 4.6968994-4.6968994v-43.3146868c0-.0204687-.010437-.0387583-.0117531-.0590553-.0053329-.0831366-.0212746-.1631765-.0481644-.242012-.0102615-.0300436-.018116-.0591698-.0313606-.0880671-.0456963-.0999346-.10326-.1948252-.1839333-.2754955l-13.0577468-13.0481171c-.0802689-.0799825-.1746445-.1373177-.2740631-.1827846-.0302162-.0139325-.060833-.022074-.0923691-.0327384-.0767708-.0258582-.1545181-.0413387-.2353592-.0468428-.0214424-.0014908-.0407639-.0123844-.0623817-.0123844h-29.768898c-2.589716 0-4.6968994 2.1071835-4.6968994 4.6969004v17.782629h-8.8392544c-2.5897169 0-4.6969004 2.1071835-4.6969004 4.6968994v18.9284172c0 3.0768356 2.507154 5.5798606 5.589036 5.5798606zm0-1.8787575c-2.0457201 0-3.7102759-1.6604271-3.7102759-3.7011032 0-.9985504.3848341-1.9292145 1.090286-2.627327.6907749-.6981163 1.6214399-1.0829506 2.6199899-1.0829506h7.9471188v7.4113808zm43.3522968-46.5997643 4.8813477 4.8777356 4.967865 4.9641962h-7.0310707c-1.5540161 0-2.8181419-1.2641258-2.8181419-2.81814v-7.0237918zm-33.5264187 1.4907155c0-1.5540137 1.2641277-2.8181403 2.81814-2.8181403h28.8295174v8.3512163c0 2.5897169 2.1071854 4.6969004 4.6969032 4.6969004h8.3608475v42.3753052c0 1.5540123-1.2641258 2.8181381-2.8181381 2.8181381h-39.0691299c-1.5540123 0-2.81814-1.2641258-2.81814-2.8181381v-6.5568542-8.3507614h18.3651561c2.5897141 0 4.6968994-2.1071815 4.6968994-4.6968994v-10.5212382c0-2.589716-2.1071854-4.6968994-4.6968994-4.6968994h-18.3651562zm-13.536154 22.4795284c0-1.5540123 1.2641265-2.81814 2.8181403-2.81814h9.778635 19.3045349c1.5540123 0 2.8181381 1.2641277 2.8181381 2.81814v10.5212402c0 1.5540123-1.2641258 2.8181419-2.8181381 2.8181419h-19.3045349-8.8864994c-.3275561 0-.6490345.0326233-.9643784.086689-.028954.0049896-.0582523.0073967-.0870919.0127869-.2988887.056015-.5888329.1397247-.8713231.2424698-.0401921.0146217-.0807281.027462-.1205187.0430031-.2729158.1064682-.5352244.2363358-.787499.3851204-.0416826.0245972-.0829066.0489044-.1240162.0745926-.2465987.1544037-.4811568.3284149-.7024136.5222664-.0166845.0146179-.0365226.0245399-.053035.0393867z"/><path d="m12.5831623 40.0737877c1.0187321 0 2.0026035-.3348351 2.8452024-.968277.4146442-.3119011.4981279-.9008484.186224-1.3154984-.3109856-.4137306-.9003916-.4976692-1.3154984-.1862259-.5141821.3866692-1.1077166.5912437-1.7159281.5912437-1.7631731 0-3.1974707-1.6856575-3.1974707-3.7575226s1.4342976-3.7575188 3.1974707-3.7575188c.6082115 0 1.201746.2045708 1.7159281.5912399.4146481.311903 1.0040541.2279644 1.3154984-.186224.311904-.4146481.2284203-1.0035954-.186224-1.3155003-.8425989-.6334381-1.8264704-.968277-2.8452024-.968277-2.7988758 0-5.0762305 2.5282536-5.0762305 5.6362801s2.2773547 5.6362803 5.0762305 5.6362803z"/><path d="m22.2462082 38.1950302c-.7770061 0-1.4090691-.6320648-1.4090691-1.4090729 0-.5187683-.4206123-.9393806-.9393806-.9393806s-.9393806.4206123-.9393806.9393806c0 1.8127098 1.4751205 3.2878304 3.2878304 3.2878304s3.2878304-1.4751205 3.2878304-3.2878304-1.4751205-3.2878304-3.2878304-3.2878304c-.7770061 0-1.4090691-.632061-1.4090691-1.4090691 0-.7770061.6320629-1.4090691 1.4090691-1.4090691s1.409071.6320629 1.409071 1.4090691c0 .5187683.4206104.9393806.9393787.9393806.5187702 0 .9393806-.4206123.9393806-.9393806 0-1.8127098-1.4751205-3.2878304-3.2878304-3.2878304s-3.2878304 1.4751205-3.2878304 3.2878304 1.4751205 3.2878304 3.2878304 3.2878304c.7770061 0 1.409071.6320648 1.409071 1.4090691 0 .7770081-.6320649 1.4090729-1.409071 1.4090729z"/><path d="m31.6826668 38.1950302c-.7770081 0-1.409071-.6320648-1.409071-1.4090729 0-.5187683-.4206104-.9393806-.9393787-.9393806-.5187702 0-.9393806.4206123-.9393806.9393806 0 1.8127098 1.4751205 3.2878304 3.2878304 3.2878304s3.2878304-1.4751205 3.2878304-3.2878304-1.4751205-3.2878304-3.2878304-3.2878304c-.7770081 0-1.409071-.632061-1.409071-1.4090691 0-.7770061.6320629-1.4090691 1.409071-1.4090691s1.4090691.6320629 1.4090691 1.4090691c0 .5187683.4206123.9393806.9393806.9393806s.9393806-.4206123.9393806-.9393806c0-1.8127098-1.4751205-3.2878304-3.2878304-3.2878304s-3.2878304 1.4751205-3.2878304 3.2878304 1.4751205 3.2878304 3.2878304 3.2878304c.7770081 0 1.4090691.6320648 1.4090691 1.4090691-.0000001.7770081-.6320611 1.4090729-1.4090691 1.4090729z"/><path d="m28.5746403 9.1302061c-.3256645-.4054747-.9169064-.4696894-1.3205452-.145402l-5.1014576 4.0909815c-.2224598.1784277-.3518085.4481325-.3518085.7329741 0 .2848406.1293488.5545454.3518085.7329731l5.1014576 4.0909824c.1733818.138979.3807049.2064056.5871124.2064056.2752094 0 .5476665-.1201744.7334328-.3518085.3242874-.4045582.259613-.9957981-.1454029-1.3205452l-4.1873055-3.3580074 4.1873055-3.3580084c.4050159-.3247471.4696903-.915988.1454029-1.3205452z"/><path d="m37.0130043 18.4873123c.1857681.2316341.4582253.3518085.7334328.3518085.2064056 0 .4137306-.0674267.5871124-.2064056l5.1014595-4.0909824c.2224579-.1784277.3518066-.4481325.3518066-.7329731 0-.2848415-.1293488-.5545464-.3518066-.7329741l-5.1014595-4.0909815c-.4036407-.32337-.9948807-.259614-1.3205452.145402-.3242874.4045572-.259613.9957981.1454048 1.3205452l4.1873055 3.3580084-4.1873055 3.3580074c-.4050178.3247471-.4696922.915987-.1454048 1.3205452z"/><path d="m34.7338181 6.424902c-.5004234-.1330175-1.0150642.1683364-1.1471634.6701341l-3.4029599 12.9504179c-.1316414.501339.1683369 1.0150623.6701336 1.1471634.0798111.0210991.16008.0307312.2389736.0307312.4164829 0 .7971878-.2788792.9081898-.7008667l3.4029579-12.9504166c.1316414-.5013394-.1683349-1.0150632-.6701316-1.1471633z"/><path d="m44.6587715 29.0846939h13.4081802c.5187683 0 .9393806-.4206123.9393806-.9393806s-.4206123-.9393806-.9393806-.9393806h-13.4081802c-.5187683 0-.9393806.4206123-.9393806.9393806s.4206123.9393806.9393806.9393806z"/><path d="m58.0669518 34.2361488h-13.4081803c-.5187683 0-.9393806.4206085-.9393806.9393768 0 .5187721.4206123.9393806.9393806.9393806h13.4081802c.5187683 0 .9393806-.4206085.9393806-.9393806.0000001-.5187682-.4206122-.9393768-.9393805-.9393768z"/><path d="m58.0669518 41.266819h-13.4081803c-.5187683 0-.9393806.4206123-.9393806.9393806s.4206123.9393806.9393806.9393806h13.4081802c.5187683 0 .9393806-.4206123.9393806-.9393806s-.4206122-.9393806-.9393805-.9393806z"/><path d="m21.8801804 50.1762505h6.4467716c.5187683 0 .9393787-.4206085.9393787-.9393768 0-.5187721-.4206104-.9393806-.9393787-.9393806h-6.4467716c-.5187683 0-.9393806.4206085-.9393806.9393806-.0000001.5187682.4206122.9393768.9393806.9393768z"/><path d="m58.0669518 48.297493h-23.2358933c-.5187721 0-.9393806.4206085-.9393806.9393806 0 .5187683.4206085.9393768.9393806.9393768h23.2358932c.5187683 0 .9393806-.4206085.9393806-.9393768.0000001-.5187721-.4206122-.9393806-.9393805-.9393806z"/><path d="m45.8751945 55.3277054h-23.9950141c-.5187683 0-.9393806.4206123-.9393806.9393806s.4206123.9393806.9393806.9393806h23.9950142c.5187683 0 .9393806-.4206123.9393806-.9393806s-.4206123-.9393806-.9393807-.9393806z"/><path d="m58.0669518 55.3277054h-5.1615448c-.5187683 0-.9393806.4206123-.9393806.9393806s.4206123.9393806.9393806.9393806h5.1615448c.5187683 0 .9393806-.4206123.9393806-.9393806s-.4206123-.9393806-.9393806-.9393806z"/></g></svg>