<svg id="Layer_1" enable-background="new 0 0 66 66" height="512" viewBox="0 0 66 66" width="512" xmlns="http://www.w3.org/2000/svg"><g><path d="m59.26 7h-1.51c.98-2.63.85-4.56-.45-5.51-2.57-1.87-5.56 2.12-6.55 3.43-.08.1-.14.18-.18.23-.46.57-.87 1.22-1.27 1.85h-42.56c-2.34 0-4.25 1.91-4.25 4.25v37.26c0 2.34 1.91 4.25 4.25 4.25h14.61v5.71h-2.13c-2.07 0-3.76 1.69-3.76 3.76v1.06h-3.89c-.47 0-.85.38-.85.85s.38.86.85.86h42.85c.47 0 .85-.38.85-.85s-.38-.85-.85-.85h-3.89v-1.06c0-2.07-1.69-3.76-3.76-3.76h-2.13v-5.71h14.61c2.34 0 4.25-1.91 4.25-4.25v-37.26c.02-2.35-1.89-4.26-4.24-4.26zm-10.42 55.24v1.06h-31.68v-1.06c0-1.14.92-2.06 2.06-2.06h27.57c1.13 0 2.05.92 2.05 2.06zm1.82-54.21c.4-.63.81-1.28 1.23-1.8.05-.06.12-.16.22-.28 2.59-3.45 3.74-3.41 4.19-3.08.7.51.71 2.9-2.11 7.39-.76 1.21-1.63 2.4-2.51 3.49l-3.08-1.95c.6-1.27 1.3-2.56 2.06-3.77zm-2.96 10.72c.43.54.81 1.38.23 2.34-1.71 2.82-4.22 2.91-6.08 2.45.59-.63 1.26-1.7 1.33-3.39.05-1.01.32-2.28 1.39-2.63.97-.3 2.34.24 3.13 1.23zm.83-1.71-1.54-.97c.2-.8.52-1.73.92-2.71l2.66 1.67c-.71.8-1.4 1.48-2.04 2.01zm-41.79-8.34h41.56c-1.39 2.48-2.48 5.06-2.96 7.05-.44-.02-.88.03-1.28.17-.9.29-2.43 1.22-2.56 4.16-.05 1.01-.37 1.81-.95 2.38-.41.4-.57.98-.42 1.54s.58 1 1.14 1.15c.62.16 1.39.31 2.25.31 1.91 0 4.2-.71 5.88-3.48.68-1.11.7-2.39.11-3.54 1.93-1.56 4.29-4.35 6.14-7.28.54-.86 1-1.68 1.38-2.45h2.25c1.41 0 2.55 1.15 2.55 2.55v29.63h-1.67l-9.03-13.54c-.36-.54-.96-.86-1.61-.86-.65 0-1.25.32-1.6.84l-3.63 5.1-7.31-10.97c-.38-.55-.98-.86-1.63-.86-.65 0-1.25.32-1.62.86l-5.62 8.42v-10.73c0-1.11-.9-2.01-2.01-2.01h-16.64c-1.11 0-2.01.9-2.01 2.01v15.68c0 1.11.9 2.01 2.01 2.01h14.01l-2.7 4.04h-16.59v-29.62c0-1.41 1.15-2.56 2.56-2.56zm2.72 26.44c-.17 0-.32-.14-.32-.32v-15.67c0-.17.14-.32.32-.32h16.64c.17 0 .31.14.31.32v15.68c0 .17-.14.32-.31.32h-16.64zm16.64 1.7c1.11 0 2.01-.9 2.01-2.01v-1.89l2.06-3.09 1.01 1.04c.32.33.89.33 1.21 0l1.16-1.19 1.17 1.19c.16.16.38.25.6.25.23 0 .45-.09.61-.25l1.16-1.19 1.17 1.19c.16.16.38.25.6.25s.45-.09.6-.25l1.03-1.05 7.36 11.05h-25.04l2.7-4.04h.59zm5.04-8.44 4-6c.06-.1.16-.11.21-.11.01-.02.14.01.21.1l4 6-.67.68-1.17-1.19c-.16-.16-.38-.25-.6-.25-.19-.01-.45.09-.61.25l-1.16 1.19-1.17-1.19c-.16-.16-.35-.24-.61-.25-.23 0-.45.09-.61.25l-1.16 1.18zm18.78 12.48-4.64-6.96 4.02-5.65c.06-.09.15-.11.2-.11.02-.01.14.01.2.11l8.4 12.6h-8.18zm-6.97 17.6h-19.9v-5.71h19.91v5.71zm18.87-9.96c0 1.41-1.15 2.55-2.55 2.55h-15.47-21.6-15.46c-1.41 0-2.55-1.15-2.55-2.55v-5.94h57.64v5.94z"/><path d="m31.43 47.67h3.15c.47 0 .85-.38.85-.85s-.38-.85-.85-.85h-3.15c-.47 0-.85.38-.85.85s.38.85.85.85z"/><path d="m13.76 23.26h-.49v-.92c0-.47-.38-.85-.85-.85s-.85.38-.85.85v.92h-.49c-.47 0-.85.38-.85.85s.38.85.85.85h.49v6.68c0 .47.38.85.85.85s.85-.38.85-.85v-6.68h.49c.47 0 .85-.38.85-.85s-.38-.85-.85-.85z"/><path d="m19.4 26.66h-.49v-4.31c0-.47-.38-.85-.85-.85s-.85.38-.85.85v4.31h-.49c-.47 0-.85.38-.85.85s.38.85.85.85h.49v3.29c0 .47.38.85.85.85s.85-.38.85-.85v-3.29h.49c.47 0 .85-.38.85-.85 0-.48-.38-.85-.85-.85z"/><path d="m24.48 24.35h-.49v-2.01c0-.47-.38-.85-.85-.85s-.85.38-.85.85v2.01h-.49c-.47 0-.85.38-.85.85s.38.85.85.85h.49v5.59c0 .47.38.85.85.85s.85-.38.85-.85v-5.59h.49c.47 0 .85-.38.85-.85s-.38-.85-.85-.85z"/></g></svg>