<?xml version="1.0"?>
<svg xmlns="http://www.w3.org/2000/svg" viewBox="0 0 48 48" width="512" height="512"><g id="_14._http_planet_" data-name="14. http (planet)"><path d="M6,21.18V19a1,1,0,0,0-2,0v8a1,1,0,0,0,2,0V24a1,1,0,0,1,2,0v3a1,1,0,0,0,2,0V24A3,3,0,0,0,6,21.18Z"/><path d="M15,23a1,1,0,0,0,0-2H14V19a1,1,0,0,0-2,0v2H11a1,1,0,0,0,0,2h1v2c0,3,4,3.92,4,2a1,1,0,0,0-1-1,1,1,0,0,1-1-1V23Z"/><path d="M22,23a1,1,0,0,0,0-2H21V19a1,1,0,0,0-2,0v2H18a1,1,0,0,0,0,2h1v2c0,3,4,3.92,4,2a1,1,0,0,0-1-1,1,1,0,0,1-1-1V23Z"/><path d="M27,21H25a1,1,0,0,0-1,1v7a1,1,0,0,0,2,0V27h1a3,3,0,0,0,0-6Zm0,4H26V23h1A1,1,0,0,1,27,25Z"/><path d="M32.62,21.08a1,1,0,0,0,0,1.84,1,1,0,0,0,.93-.09A1,1,0,0,0,32.62,21.08Z"/><path d="M33.71,25.29a1,1,0,0,0-1.63,1.09C32.68,27.84,34.78,26.48,33.71,25.29Z"/><path d="M38,19.76l-2,8a1,1,0,0,0,1.94.48l2-8A1,1,0,0,0,38,19.76Z"/><path d="M42,19.76l-2,8a1,1,0,0,0,1.94.48l2-8A1,1,0,0,0,42,19.76Z"/><path d="M45,14H43.59C35.48-1.89,12.64-2.12,4.41,14H3a3,3,0,0,0-3,3V31a3,3,0,0,0,3,3H4.41c8.26,16.18,31.1,15.82,39.18,0H45a3,3,0,0,0,3-3V17A3,3,0,0,0,45,14Zm-3.68,0H34.71a27.19,27.19,0,0,0-1.44-4.06,21.74,21.74,0,0,0,3-1.72A20.11,20.11,0,0,1,41.32,14Zm-26,0a27,27,0,0,1,1.21-3.3A21.78,21.78,0,0,0,23,12v2ZM30,4.93A20,20,0,0,1,34.55,7a19.84,19.84,0,0,1-2.18,1.17A16,16,0,0,0,30,4.93Zm.46,4A19.56,19.56,0,0,1,25,10V4.1C27,4.53,29,6.26,30.5,8.91ZM23,4.1V10a19.56,19.56,0,0,1-5.5-1.05C19,6.26,21,4.53,23,4.1ZM15.63,8.16A19.7,19.7,0,0,1,13.46,7a19.62,19.62,0,0,1,4.49-2A15.85,15.85,0,0,0,15.63,8.16ZM25,12a21.78,21.78,0,0,0,6.43-1.26A27,27,0,0,1,32.64,14H25ZM11.7,8.22a21.64,21.64,0,0,0,3,1.72A27.19,27.19,0,0,0,13.29,14H6.68A20,20,0,0,1,11.7,8.22ZM6.68,34h6.61a27.19,27.19,0,0,0,1.44,4.06,21.74,21.74,0,0,0-3,1.72A20.11,20.11,0,0,1,6.68,34Zm26,0a27,27,0,0,1-1.21,3.3A21.78,21.78,0,0,0,25,36V34ZM18,43.07A20,20,0,0,1,13.45,41a19.84,19.84,0,0,1,2.18-1.17A16,16,0,0,0,18,43.07Zm-.46-4A19.56,19.56,0,0,1,23,38V43.9C21,43.47,19,41.74,17.5,39.09ZM25,43.9V38a19.56,19.56,0,0,1,5.5,1.05C29,41.74,27,43.47,25,43.9Zm7.37-4.06A19.7,19.7,0,0,1,34.54,41a19.62,19.62,0,0,1-4.49,2.05A15.85,15.85,0,0,0,32.37,39.84ZM23,36a21.78,21.78,0,0,0-6.43,1.26A27,27,0,0,1,15.36,34H23Zm13.3,3.74a21.64,21.64,0,0,0-3-1.72A27.19,27.19,0,0,0,34.71,34h6.61A20,20,0,0,1,36.3,39.78ZM46,31a1,1,0,0,1-1,1H3a1,1,0,0,1-1-1V17a1,1,0,0,1,1-1H45a1,1,0,0,1,1,1Z"/></g></svg>
