<svg id="Layer_1" enable-background="new 0 0 512 512" viewBox="0 0 512 512" xmlns="http://www.w3.org/2000/svg"><path d="m459.18 140.37h-40.5v-92.57c0-18.09-14.71-32.8-32.8-32.8h-259.76c-18.09 0-32.8 14.71-32.8 32.8v92.57h-40.5c-12.2 0-22.13 9.93-22.13 22.13v250.31c0 12.2 9.93 22.13 22.13 22.13h149.34v50.06h-33.6c-3.31 0-6 2.69-6 6s2.69 6 6 6h174.88c3.31 0 6-2.69 6-6s-2.69-6-6-6h-33.6v-50.06h149.34c12.2 0 22.13-9.93 22.13-22.13v-250.31c0-12.2-9.93-22.13-22.13-22.13zm-353.86-46.84h301.35v190.69c0 11.47-9.33 20.8-20.8 20.8h-259.75c-11.47 0-20.8-9.33-20.8-20.8zm20.8-66.53h259.75c11.47 0 20.8 9.33 20.8 20.8v33.73h-301.35v-33.73c0-11.47 9.33-20.8 20.8-20.8zm-73.3 125.37h40.5v131.85c0 18.09 14.71 32.8 32.8 32.8h259.75c18.09 0 32.8-14.71 32.8-32.8v-131.85h40.5c5.59 0 10.13 4.54 10.13 10.13v207.67h-426.61v-207.67c0-5.58 4.55-10.13 10.13-10.13zm245.02 332.63h-83.68v-50.06h83.68zm161.34-62.06h-406.36c-5.59 0-10.13-4.54-10.13-10.13v-30.64h426.62v30.64c0 5.59-4.55 10.13-10.13 10.13zm-183.96-20.38c0 3.31-2.69 6-6 6h-26.43c-3.31 0-6-2.69-6-6s2.69-6 6-6h26.43c3.31 0 6 2.68 6 6zm-136.45-348.7c0-3.31 2.69-6 6-6s6 2.69 6 6-2.68 6-6 6c-3.31 0-6-2.68-6-6zm27.03 0c0-3.31 2.69-6 6-6s6 2.69 6 6-2.68 6-6 6c-3.32 0-6-2.68-6-6zm27.02 0c0-3.31 2.69-6 6-6s6 2.69 6 6-2.68 6-6 6c-3.31 0-6-2.68-6-6zm31.9.81c0-3.31 2.69-6 6-6h136.5c3.31 0 6 2.69 6 6s-2.69 6-6 6h-136.5c-3.31 0-6-2.69-6-6zm46.72 106.95c-2.13-2.3-2.13-5.85 0-8.16l16.8-18.13c2.25-2.43 6.05-2.57 8.48-.32s2.58 6.05.32 8.48l-13.02 14.05 13.02 14.05c2.25 2.43 2.11 6.23-.32 8.48-1.16 1.07-2.62 1.6-4.08 1.6-1.61 0-3.22-.65-4.4-1.92zm82.68 9.97 13.02-14.05-13.02-14.05c-2.25-2.43-2.11-6.23.32-8.48s6.23-2.11 8.48.32l16.8 18.13c2.13 2.3 2.13 5.85 0 8.16l-16.8 18.13c-1.18 1.28-2.79 1.92-4.4 1.92-1.46 0-2.92-.53-4.08-1.6-2.43-2.25-2.57-6.05-.32-8.48zm-42.18 6.39 15.97-44.9c1.11-3.12 4.54-4.75 7.66-3.64s4.75 4.54 3.64 7.66l-15.96 44.9c-.87 2.46-3.19 3.99-5.65 3.99-.67 0-1.35-.11-2.01-.35-3.13-1.11-4.76-4.54-3.65-7.66zm-167.91 96.73h223.94c7.36 0 13.35-5.99 13.35-13.35v-38.46c0-7.36-5.99-13.35-13.35-13.35h-223.94c-7.36 0-13.35 5.99-13.35 13.35v38.46c0 7.36 5.99 13.35 13.35 13.35zm-1.35-51.81c0-.73.62-1.35 1.35-1.35h223.94c.73 0 1.35.62 1.35 1.35v38.46c0 .73-.62 1.35-1.35 1.35h-223.94c-.73 0-1.35-.62-1.35-1.35zm-12-93.06c0-3.31 2.69-6 6-6h61.5c3.31 0 6 2.69 6 6s-2.69 6-6 6h-61.5c-3.31 0-6-2.68-6-6zm0 27.7c0-3.31 2.69-6 6-6h87.42c3.31 0 6 2.69 6 6s-2.69 6-6 6h-87.42c-3.31 0-6-2.69-6-6zm0 27.7c0-3.31 2.69-6 6-6h34c3.31 0 6 2.69 6 6s-2.69 6-6 6h-34c-3.31 0-6-2.69-6-6z"/></svg>